# xmcd
#
# Track frame offsets:
#   150
#   13705
#   28769
#   43792
#   64245
#   82616
#   98757
#   113834
#   133286
#   155352
#   169851
#   185702
#   201228
#   215567
#   231749
#
# Disc length: 3251 seconds
#
# Revision: 0
# Processed by: cddbd v1.5.2PL0 Copyright (c) Steve Scherf et al.
# Submitted via: uFREEDB ActiveX Control 1.5
#
DISCID=d70cb10f
DTITLE=Papa Roach - Paramour Sessions
DYEAR=2006
DGENRE=Alternative
TTITLE0=To Be Loved
TTITLE1=Alive ('N Out Of Control)
TTITLE2=Crash
TTITLE3=The World Around You
TTITLE4=Forever
TTITLE5=I Devise My Own Demise
TTITLE6=Time Is Running Out
TTITLE7=What Do You Do
TTITLE8=My Heart Is A Fist
TTITLE9=No More Secrets
TTITLE10=Reckles
TTITLE11=The Fire
TTITLE12=Roses On My Grave
TTITLE13=Scars (live)
TTITLE14=Sos
EXTD=
EXTT0=
EXTT1=
EXTT2=
EXTT3=
EXTT4=
EXTT5=
EXTT6=
EXTT7=
EXTT8=
EXTT9=
EXTT10=
EXTT11=
EXTT12=
EXTT13=
EXTT14=
PLAYORDER=
